<svg id="Layer_1" data-name="Layer 1" xmlns="http://www.w3.org/2000/svg" viewBox="0 0 189 54.03"><defs><style>.cls-1{fill:#fff;}.cls-2{fill:#72bf44;}</style></defs><title>light-brand</title><g id="Layer_2" data-name="Layer 2"><g id="Layer_1-2" data-name="Layer 1-2"><path class="cls-1" d="M0,52.92l.71-.84a3.09,3.09,0,0,0,2.11.87c.73,0,1.19-.33,1.19-.84H4c0-.48-.27-.74-1.51-1-1.43-.35-2.23-.76-2.23-2h0a2,2,0,0,1,2-2l.24,0A3.71,3.71,0,0,1,5,48l-.63.89a3,3,0,0,0-1.82-.69c-.69,0-1.09.35-1.09.79h0c0,.52.3.75,1.59,1s2.15.85,2.15,2h0c0,1.25-1,2-2.39,2A4.12,4.12,0,0,1,0,52.92"/><path class="cls-1" d="M11.85,51.24l-1.16-2.68L9.54,51.24Zm-1.69-4.08h1.09L14.2,53.9H13l-.68-1.62H9.11L8.42,53.9H7.22Z"/><polygon class="cls-1" points="16.71 47.2 17.97 47.2 20 50.37 22.04 47.2 23.29 47.2 23.29 53.9 22.12 53.9 22.12 49.09 20 52.25 19.96 52.25 17.87 49.12 17.87 53.9 16.71 53.9 16.71 47.2"/><rect class="cls-1" x="26.45" y="47.2" width="1.18" height="6.69"/><polygon class="cls-1" points="35.02 47.2 36.1 47.2 39.69 51.83 39.69 47.2 40.85 47.2 40.85 53.9 39.87 53.9 36.17 49.13 36.17 53.9 35.02 53.9 35.02 47.2"/><path class="cls-1" d="M46.92,51.78a3.26,3.26,0,0,0-1.16-.2c-.73,0-1.16.3-1.16.78h0c0,.48.43.75,1,.75.76,0,1.34-.43,1.34-1.06Zm0,2.11v-.62a2,2,0,0,1-1.64.73,1.62,1.62,0,0,1-1.79-1.43s0-.09,0-.13h0c0-1.12.87-1.65,2-1.65a4.23,4.23,0,0,1,1.4.21v-.1c0-.7-.44-1.08-1.24-1.08a3.5,3.5,0,0,0-1.44.32l-.32-.93a4.36,4.36,0,0,1,1.92-.42A2,2,0,0,1,48,50.9v3Z"/><polygon class="cls-1" points="50.12 48.85 51.36 48.85 52.72 52.56 54.08 48.85 55.3 48.85 53.23 53.94 52.19 53.94 50.12 48.85"/><path class="cls-1" d="M60.53,51.78a3.26,3.26,0,0,0-1.16-.2c-.73,0-1.16.3-1.16.78h0c0,.48.43.75,1,.75.76,0,1.34-.43,1.34-1.06Zm0,2.11v-.62a2,2,0,0,1-1.64.73,1.62,1.62,0,0,1-1.79-1.43s0-.09,0-.13h0c0-1.12.87-1.65,2-1.65a4.23,4.23,0,0,1,1.39.21v-.1c0-.7-.44-1.08-1.24-1.08a3.52,3.52,0,0,0-1.44.32l-.32-.93a4.36,4.36,0,0,1,1.92-.42,2,2,0,0,1,2.22,2.13v3Z"/><path class="cls-1" d="M64.39,48.85h1.16v.78a1.81,1.81,0,0,1,1.58-.89,1.73,1.73,0,0,1,1.8,1.94V53.9H67.77V51c0-.78-.39-1.23-1.08-1.23A1.12,1.12,0,0,0,65.55,51v2.9H64.39Z"/><path class="cls-1" d="M71.93,52.5V49.84h-.64v-1h.64V47.46h1.16v1.39h1.36v1H73.08v2.48a.55.55,0,0,0,.46.63h.16a1.57,1.57,0,0,0,.72-.17v1a2,2,0,0,1-1,.26A1.29,1.29,0,0,1,72,52.52"/><path class="cls-1" d="M77,48.85h1.2v5H77ZM77,47h1.24v1.1H77Z"/><path class="cls-1" d="M84.19,51.78a3.26,3.26,0,0,0-1.16-.2c-.73,0-1.16.3-1.16.78h0c0,.48.43.75,1,.75.76,0,1.34-.43,1.34-1.06Zm0,2.11v-.62a2,2,0,0,1-1.64.73,1.62,1.62,0,0,1-1.79-1.43s0-.09,0-.13h0c0-1.12.87-1.65,2-1.65a4.26,4.26,0,0,1,1.4.21v-.1c0-.7-.44-1.08-1.24-1.08a3.5,3.5,0,0,0-1.44.32l-.32-.93a4.36,4.36,0,0,1,1.92-.42,2,2,0,0,1,2.22,2.13v3Z"/><polygon class="cls-1" points="92.43 47.2 93.52 47.2 97.1 51.83 97.1 47.2 98.26 47.2 98.26 53.9 97.28 53.9 93.58 49.13 93.58 53.9 92.43 53.9 92.43 47.2"/><path class="cls-1" d="M104.33,51.78a3.26,3.26,0,0,0-1.16-.2c-.73,0-1.16.3-1.16.78h0c0,.48.43.75,1,.75.76,0,1.34-.43,1.34-1.06Zm0,2.11v-.62a2,2,0,0,1-1.64.73,1.62,1.62,0,0,1-1.79-1.43s0-.09,0-.13h0c0-1.12.87-1.65,2-1.65a4.23,4.23,0,0,1,1.39.21v-.1c0-.7-.44-1.08-1.24-1.08a3.5,3.5,0,0,0-1.44.32l-.32-.93a4.36,4.36,0,0,1,1.92-.42,2,2,0,0,1,2.22,2.13v3Z"/><polygon class="cls-1" points="107.53 48.85 108.77 48.85 110.13 52.56 111.49 48.85 112.71 48.85 110.64 53.94 109.6 53.94 107.53 48.85"/><path class="cls-1" d="M117.94,51.78a3.26,3.26,0,0,0-1.16-.2c-.73,0-1.16.3-1.16.78h0c0,.48.43.75,1,.75.76,0,1.34-.43,1.34-1.06Zm0,2.11v-.62a2,2,0,0,1-1.64.73,1.62,1.62,0,0,1-1.79-1.43s0-.09,0-.13h0c0-1.12.87-1.65,2-1.65a4.22,4.22,0,0,1,1.39.21v-.1c0-.7-.44-1.08-1.24-1.08a3.5,3.5,0,0,0-1.44.32l-.32-.93a4.36,4.36,0,0,1,1.92-.42A2,2,0,0,1,119,50.92v3Z"/><rect class="cls-1" x="121.87" y="46.92" width="1.16" height="6.98"/><rect class="cls-1" x="130.34" y="47.2" width="1.18" height="6.69"/><path class="cls-1" d="M134.54,48.85h1.16v.78a1.81,1.81,0,0,1,1.58-.89,1.73,1.73,0,0,1,1.8,1.94V53.9h-1.16V51c0-.78-.39-1.23-1.08-1.23A1.12,1.12,0,0,0,135.7,51v2.9h-1.16Z"/><path class="cls-1" d="M145.66,51.38h0a1.52,1.52,0,0,0-1.42-1.62h-.05a1.48,1.48,0,0,0-1.46,1.5s0,.08,0,.12h0A1.5,1.5,0,0,0,144.11,53h.09a1.52,1.52,0,0,0,1.47-1.57v-.05m-4.09,0h0a2.41,2.41,0,0,1,2.19-2.61h.15a2.09,2.09,0,0,1,1.72.89V46.92h1.16v7h-1.16v-.84a2,2,0,0,1-1.72,1,2.42,2.42,0,0,1-2.35-2.49s0-.09,0-.13"/><path class="cls-1" d="M149.55,52.06V48.85h1.16v2.87c0,.78.39,1.23,1.08,1.23a1.12,1.12,0,0,0,1.14-1.25V48.85h1.16v5h-1.16v-.78a1.82,1.82,0,0,1-1.58.89,1.73,1.73,0,0,1-1.8-1.94"/><path class="cls-1" d="M156.49,53.24l.52-.78a2.84,2.84,0,0,0,1.65.62c.5,0,.78-.21.78-.54h0c0-.39-.53-.53-1.13-.71s-1.58-.52-1.58-1.48h0a1.61,1.61,0,0,1,1.67-1.55h.13a3.49,3.49,0,0,1,1.85.57l-.46.82a2.93,2.93,0,0,0-1.42-.48c-.45,0-.71.21-.71.51h0c0,.36.55.52,1.14.71s1.57.57,1.57,1.47h0c0,1.06-.82,1.59-1.87,1.59a3.56,3.56,0,0,1-2.14-.76"/><path class="cls-1" d="M163.2,52.5V49.84h-.64v-1h.64V47.46h1.16v1.39h1.36v1h-1.36v2.48a.55.55,0,0,0,.46.63H165a1.57,1.57,0,0,0,.72-.17v1a2,2,0,0,1-1,.26,1.29,1.29,0,0,1-1.45-1.48"/><path class="cls-1" d="M168.25,48.85h1.16V50a1.79,1.79,0,0,1,1.79-1.23V50h-.07c-1,0-1.72.66-1.72,2v1.9h-1.16Z"/><path class="cls-1" d="M173.63,48.85h1.16v5h-1.16Zm0-1.87h1.24v1.1h-1.24Z"/><path class="cls-1" d="M181.13,51a1.31,1.31,0,0,0-1.28-1.33A1.36,1.36,0,0,0,178.53,51Zm-3.74.37h0a2.51,2.51,0,0,1,2.39-2.63h.08a2.44,2.44,0,0,1,2.42,2.72v.33h-3.71A1.41,1.41,0,0,0,180,53.07a1.83,1.83,0,0,0,1.37-.6l.68.6a2.56,2.56,0,0,1-2,.93,2.52,2.52,0,0,1-2.59-2.45q0-.09,0-.17"/><path class="cls-1" d="M184.4,53.24l.52-.78a2.84,2.84,0,0,0,1.65.62c.5,0,.78-.21.78-.54h0c0-.39-.53-.53-1.13-.71s-1.58-.52-1.58-1.48h0a1.61,1.61,0,0,1,1.67-1.55h.13a3.49,3.49,0,0,1,1.86.57l-.46.82a2.93,2.93,0,0,0-1.42-.48c-.45,0-.71.21-.71.51h0c0,.36.54.52,1.14.71s1.57.57,1.57,1.47h0c0,1.06-.82,1.59-1.87,1.59a3.56,3.56,0,0,1-2.14-.76"/><polygon class="cls-1" points="90.7 26.6 87.26 26.6 87.26 8.79 92.34 8.79 98.27 21.17 99.22 21.17 99.22 8.79 102.67 8.79 102.67 26.6 97.49 26.6 91.65 14.23 90.7 14.23 90.7 26.6"/><path class="cls-1" d="M109.29,23a2.92,2.92,0,0,0,2.23,1,3.77,3.77,0,0,0,3.28-2V19.12a3.81,3.81,0,0,0-3.28-2,3,3,0,0,0-2.23,1,3.38,3.38,0,0,0-.9,2.4,3.51,3.51,0,0,0,.9,2.47m5.51,3.66v-2a4.58,4.58,0,0,1-4.09,2.4,5.14,5.14,0,0,1-4-1.85,6.73,6.73,0,0,1-1.64-4.63A6.56,6.56,0,0,1,106.71,16a5.15,5.15,0,0,1,4-1.85,4.56,4.56,0,0,1,4.09,2.38v-2h3.3V26.6Z"/><polygon class="cls-1" points="128.29 26.6 122.69 26.6 119.67 14.4 123.09 14.4 125.01 23.8 125.94 23.8 127.86 14.4 131.3 14.4 128.29 26.6"/><path class="cls-1" d="M136.31,23a2.92,2.92,0,0,0,2.23,1,3.77,3.77,0,0,0,3.28-2V19.12a3.81,3.81,0,0,0-3.28-2,3,3,0,0,0-2.23,1,3.38,3.38,0,0,0-.9,2.4,3.51,3.51,0,0,0,.9,2.47m5.51,3.66v-2a4.58,4.58,0,0,1-4.09,2.4,5.14,5.14,0,0,1-4-1.85,6.73,6.73,0,0,1-1.64-4.63A6.56,6.56,0,0,1,133.73,16a5.15,5.15,0,0,1,4-1.85,4.56,4.56,0,0,1,4.09,2.38v-2h3.3V26.6Z"/><path class="cls-1" d="M151,18.53V26.6h-3.4V14.4H151v2.06a5.25,5.25,0,0,1,4.3-2.4c2.68,0,4.35,1.8,4.35,4.63V26.6h-3.4v-7a2.23,2.23,0,0,0-2.38-2.52A3.62,3.62,0,0,0,151,18.53"/><polygon class="cls-1" points="168.7 17.08 166.57 17.08 166.57 26.6 163.17 26.6 163.17 17.08 161.06 17.08 161.06 14.4 163.17 14.4 163.17 10.98 166.57 10.98 166.57 14.4 168.7 14.4 168.7 17.08"/><rect class="cls-1" x="170.32" y="14.4" width="3.4" height="12.21"/><path class="cls-1" d="M180.15,23a2.93,2.93,0,0,0,2.23,1,3.77,3.77,0,0,0,3.28-2V19.12a3.81,3.81,0,0,0-3.28-2,3,3,0,0,0-2.23,1,3.38,3.38,0,0,0-.9,2.4,3.51,3.51,0,0,0,.9,2.47m5.51,3.66v-2a4.58,4.58,0,0,1-4.09,2.4,5.14,5.14,0,0,1-4-1.85,6.73,6.73,0,0,1-1.64-4.63A6.56,6.56,0,0,1,177.57,16a5.15,5.15,0,0,1,4-1.85,4.56,4.56,0,0,1,4.09,2.38v-2H189V26.6Z"/><rect class="cls-1" x="170.32" y="10.98" width="3.4" height="2.17"/><path class="cls-1" d="M3.61,35.06a.7.7,0,0,1,.72-.68h0a.7.7,0,0,1,.75.65v0a.68.68,0,0,1-.67.69H4.36a.69.69,0,0,1-.75-.63s0,0,0-.06m-1.88,0a.7.7,0,0,1,.72-.68h0a.7.7,0,0,1,.75.65v0a.68.68,0,0,1-.67.69H2.48a.69.69,0,0,1-.75-.63s0,0,0-.06m2.13,3.06H3.32a1.49,1.49,0,0,0-1.68,1.47h0A1.49,1.49,0,0,0,3.2,41h.67ZM6.16,41v1.2H3.41a2.64,2.64,0,0,1-2.9-2.36q0-.12,0-.24h0c0-1.6,1.22-2.66,3.07-2.66h.29v-.47h1.2V41Z"/><rect class="cls-1" x="5.98" y="41.04" width="1.69" height="1.2"/><rect class="cls-1" x="7.48" y="41.04" width="1.69" height="1.2"/><rect class="cls-1" x="8.98" y="41.04" width="1.69" height="1.2"/><rect class="cls-1" x="10.49" y="41.04" width="1.69" height="1.2"/><path class="cls-1" d="M13.77,43.86a.75.75,0,1,1,.75.75.75.75,0,0,1-.75-.75M12,41h1.84V36.9H15v5.31H12Zm-.09,2.83a.75.75,0,0,1,1.5,0,.68.68,0,0,1-.68.68h-.07a.69.69,0,0,1-.75-.63s0,0,0-.05"/><path class="cls-1" d="M19.94,42.24H18.88c-.06,1.6-.72,2.07-1.93,2.07a3.23,3.23,0,0,1-.76-.09l-.12-1h.76c.51,0,.85-.26.85-1V36.93h1.2V41h1.06Z"/><rect class="cls-1" x="19.76" y="41.04" width="1.69" height="1.2"/><path class="cls-1" d="M27.23,41v1.2h-6V41H25a6,6,0,0,0,.2-1.44,1.49,1.49,0,0,0-1.32-1.64h-.25a2.55,2.55,0,0,0-1.47.45l-.43-1.1a4.26,4.26,0,0,1,2-.55c1.72,0,2.62,1.11,2.62,2.91A8,8,0,0,1,26.18,41Z"/><rect class="cls-1" x="27.04" y="41.04" width="1.69" height="1.2"/><rect class="cls-1" x="28.54" y="41.04" width="1.69" height="1.2"/><rect class="cls-1" x="30.04" y="41.04" width="1.69" height="1.2"/><path class="cls-1" d="M33.83,43.87a.69.69,0,0,1-.69.69h-.06a.69.69,0,1,1,.75-.69M34.77,41v1.2H31.55V41h.92V36.9h1.19V41Z"/><rect class="cls-1" x="34.58" y="41.04" width="1.69" height="1.2"/><rect class="cls-1" x="36.08" y="41.04" width="1.69" height="1.2"/><polygon class="cls-1" points="40.2 34.62 40.2 42.24 37.49 42.24 37.49 41.04 39 41.04 39 34.62 40.2 34.62"/><rect class="cls-1" x="41.94" y="34.62" width="1.19" height="7.62"/><path class="cls-1" d="M53,35.63a.7.7,0,0,1,.71-.69h0a.7.7,0,0,1,.75.65v0a.76.76,0,0,1-1.5,0m-1.88,0a.75.75,0,1,1,.75.75.75.75,0,0,1-.75-.75M56,36.94v5.31H52.24c-2,0-2.9-1-2.9-2.8V37.72h1.2v1.6c0,1.22.75,1.72,2,1.72h2.4v-4.1Z"/><polygon class="cls-1" points="60.45 41.04 60.45 42.24 57.66 42.24 57.66 34.62 58.86 34.62 58.86 41.04 60.45 41.04"/><rect class="cls-1" x="60.26" y="41.04" width="1.69" height="1.2"/><rect class="cls-1" x="61.77" y="41.04" width="1.69" height="1.2"/><rect class="cls-1" x="63.27" y="41.04" width="1.69" height="1.2"/><path class="cls-1" d="M70.13,41v1.2H64.77V41h1.08a5.35,5.35,0,0,1-.38-1.78,2.33,2.33,0,0,1,2.17-2.48H68a5.1,5.1,0,0,1,1.95.48l-.39,1.11a3.48,3.48,0,0,0-1.47-.39,1.4,1.4,0,0,0-1.47,1.52A2.9,2.9,0,0,0,67.16,41Z"/><polygon class="cls-1" points="74.36 41.04 74.36 42.24 71.56 42.24 71.56 34.62 72.76 34.62 72.76 41.04 74.36 41.04"/><rect class="cls-1" x="74.17" y="41.04" width="1.69" height="1.2"/><path class="cls-1" d="M76.43,35.25a.77.77,0,0,1,1.52,0,.69.69,0,0,1-.68.7H77.2a.7.7,0,0,1-.77-.7M78.89,41v1.2H75.67V41h.92V36.9h1.19V41Z"/><rect class="cls-1" x="78.71" y="41.04" width="1.69" height="1.2"/><path class="cls-1" d="M86.16,39.52c0-1-.62-1.39-1.57-1.4H82.33V41h3.82ZM88.47,41v1.2H80.21V41h.92V36.42h1.2v.52h2.16a2.56,2.56,0,0,1,2.88,2.79V41Z"/><rect class="cls-1" x="88.28" y="41.04" width="1.69" height="1.2"/><polygon class="cls-1" points="93.1 41.04 93.1 42.24 89.78 42.24 89.78 41.04 90.8 41.04 90.8 34.62 91.99 34.62 91.99 41.04 93.1 41.04"/><polygon class="cls-1" points="95.52 34.62 95.52 42.24 92.81 42.24 92.81 41.04 94.33 41.04 94.33 34.62 95.52 34.62"/><polygon class="cls-1" points="104.82 41.04 104.82 42.24 102.03 42.24 102.03 34.62 103.23 34.62 103.23 41.04 104.82 41.04"/><rect class="cls-1" x="104.63" y="41.04" width="1.69" height="1.2"/><path class="cls-1" d="M110,43.86a.76.76,0,0,1-1.5,0,.7.7,0,0,1,.72-.68h0a.69.69,0,0,1,.75.63s0,0,0,.05m-1.88,0a.75.75,0,1,1-.75-.75.75.75,0,0,1,.75.75m2.41-1.62h-4.35V41h1.48V36.9h1.19V41h1.67Z"/><rect class="cls-1" x="110.3" y="41.04" width="1.69" height="1.2"/><rect class="cls-1" x="111.8" y="41.04" width="1.69" height="1.2"/><rect class="cls-1" x="113.3" y="41.04" width="1.69" height="1.2"/><path class="cls-1" d="M117.12,35.31a.75.75,0,1,1,.75.75.75.75,0,0,1-.75-.75m-1.88,0a.75.75,0,1,1,.75.75.75.75,0,0,1-.75-.75m3.92,6.93h-4.35V41h1.48V36.9h1.19V41h1.67Z"/><rect class="cls-1" x="118.97" y="41.04" width="1.69" height="1.2"/><rect class="cls-1" x="120.47" y="41.04" width="1.69" height="1.2"/><path class="cls-1" d="M122.75,35.25a.77.77,0,0,1,1.52,0,.69.69,0,0,1-.68.7h-.07a.7.7,0,0,1-.77-.7M122,41h.92V36.9h1.19v5.31H122Z"/><polygon class="cls-1" points="128.46 41.04 128.46 42.24 125.67 42.24 125.67 34.62 126.86 34.62 126.86 41.04 128.46 41.04"/><rect class="cls-1" x="128.27" y="41.04" width="1.69" height="1.2"/><rect class="cls-1" x="129.77" y="41.04" width="1.69" height="1.2"/><rect class="cls-1" x="131.28" y="41.04" width="1.69" height="1.2"/><path class="cls-1" d="M135.9,35.25a.77.77,0,0,1,1.52,0,.69.69,0,0,1-.68.7h-.07a.7.7,0,0,1-.77-.7m1,5.79V38.12h-.54a1.49,1.49,0,0,0-1.68,1.47h0A1.49,1.49,0,0,0,136.23,41h.15Zm1.19-4.1v5.31h-5.34V41H134a2.64,2.64,0,0,1-.4-1.44h0c0-1.6,1.22-2.66,3.07-2.66Z"/><polygon class="cls-1" points="142.48 41.04 142.48 42.24 139.69 42.24 139.69 34.62 140.88 34.62 140.88 41.04 142.48 41.04"/><rect class="cls-1" x="142.29" y="41.04" width="1.69" height="1.2"/><path class="cls-1" d="M144.58,35.25a.77.77,0,0,1,1.52,0,.69.69,0,0,1-.68.7h-.07a.7.7,0,0,1-.77-.7M143.8,41h.92V36.9h1.19v5.31H143.8Z"/><path class="cls-1" d="M157.3,45a.75.75,0,1,1-.75-.75.75.75,0,0,1,.75.75m-1.88,0a.76.76,0,1,1-.63-.63.76.76,0,0,1,.63.63m6.42-4v1.2h-2.31V38.06h-.75a1.06,1.06,0,0,0-1.14,1.2v4.15h-2.78c-2,0-2.9-.94-2.9-2.8v-2h1.2v1.87c0,1.25.79,1.73,2,1.73h1.32V39.48A2.26,2.26,0,0,1,159,36.93h1.74V41Z"/><rect class="cls-1" x="161.66" y="41.04" width="1.69" height="1.2"/><path class="cls-1" d="M168,40.43a1.48,1.48,0,0,0-1.3-1.64h-.16a1.48,1.48,0,0,0-1.47,1.65h0a1.47,1.47,0,0,0,1.29,1.63h.18A1.47,1.47,0,0,0,168,40.43Zm1.19,0h0a2.59,2.59,0,0,1-2.36,2.8h-.29a2.53,2.53,0,0,1-2.14-1h-1.26V41h.79a3.75,3.75,0,0,1,0-.57h0a2.62,2.62,0,0,1,2.35-2.87h.31a2.62,2.62,0,0,1,2.65,2.88"/><polygon class="cls-1" points="173.35 41.04 173.35 42.24 170.56 42.24 170.56 34.62 171.75 34.62 171.75 41.04 173.35 41.04"/><rect class="cls-1" x="173.16" y="41.04" width="1.69" height="1.2"/><rect class="cls-1" x="174.67" y="41.04" width="1.69" height="1.2"/><rect class="cls-1" x="176.17" y="41.04" width="1.69" height="1.2"/><rect class="cls-1" x="177.67" y="41.04" width="1.69" height="1.2"/><path class="cls-1" d="M188.62,36.87v2.8c0,1.78-.79,2.66-2.46,2.66a2,2,0,0,1-1.93-1.07,2.1,2.1,0,0,1-1.93,1h-3.12V41h1.16V37.57h1.19V41h.76a1.28,1.28,0,0,0,1.42-1.33v-2.1h1.2v2.3a1.26,1.26,0,1,0,2.51-.07V36.87Z"/><polygon class="cls-1" points="37.91 20.53 30.83 20.53 27.59 24.66 40.09 24.66 41.37 26.94 47.03 26.94 37.46 8.84 34.08 13.15 37.91 20.53"/><polygon class="cls-1" points="74.98 8.84 74.98 8.84 68.8 8.84 61.81 18.59 54.77 8.84 48.58 8.84 48.57 8.84 48.57 26.94 53.55 26.94 53.55 15.72 61.83 27.19 70.03 15.73 70.03 26.94 75.02 26.94 75.02 8.84 74.98 8.84"/><rect class="cls-1" x="77.47" y="8.83" width="4.98" height="18.1"/><path class="cls-1" d="M21.58,13.76V8.84H4.72A3.54,3.54,0,0,0,1.93,10,4.08,4.08,0,0,0,.78,12.87C.78,15.14,2.34,16.11,4,17l10.07,5.1H.91V27h17.5l3.31-6.37L7.6,13.76Z"/><polygon class="cls-2" points="17.02 34.3 17.5 34.3 37.46 8.84 30.26 8.84 17.02 34.3"/><polygon class="cls-2" points="38.14 0 31.81 6.48 38.14 6.48 38.14 0"/></g></g></svg>